# xmcd CD database file
#
# Track frame offsets:
#	150
#	3227
#	22262
#	62036
#	95383
#	138432
#
# Disc length: 2406 seconds
#
# Revision: 0
# Processed by: cddbd v1.5.2PL0 Copyright (c) Steve Scherf et al.
# Submitted via: CDex 1.51
#
DISCID=48096406
DTITLE=Jasna Bilusic - 2011 - and New Deal - Live CD2
DYEAR=2011
DGENRE=Jazz
TTITLE0=Intro
TTITLE1=Almost Blue
TTITLE2=Take Five
TTITLE3=People Are Strange
TTITLE4=My Favourite Things
TTITLE5=Hallelujah I Love Him So
EXTD=YEAR: 2011
EXTT0=
EXTT1=
EXTT2=
EXTT3=
EXTT4=
EXTT5=
PLAYORDER=
